# xmcd CD database file
#
# Track frame offsets:
#	150
#	19006
#	36284
#	48942
#	66483
#	84585
#	101786
#	116428
#	129010
#	140661
#	154086
#	165925
#	180164
#	192995
#	212472
#	228314
#	242926
#	257307
#	270164
#	287665
#	305421
#
# Disc length: 4281 seconds
#
# Revision: 0
# Processed by: cddbd v1.5.2PL0 Copyright (c) Steve Scherf et al.
# Submitted via: Feurio! 1.68 - http://www.feurio.com
#
DISCID=1110b715
DTITLE=Various Artist - Country Tough
DYEAR=1900
DGENRE=Country
TTITLE0=William Ray - Rosie's Bar
TTITLE1=LeNaye Pearson - While My Heart Is Holding You Again
TTITLE2=Bruce Greaves - It's Over My Head
TTITLE3=Jennifer Louise - What Goes Around Comes Around
TTITLE4=B. Jeff Stone - Mary Ann Regrets
TTITLE5=William Ray - Clackety Clack
TTITLE6=Annie Harrison - A Moment In Time
TTITLE7=The Western Cowboys - Big Family
TTITLE8=Chris Rainbow - I Wasn't At The Honky Tonk Last Night
TTITLE9=Marilyn McConnell - Can't Stop Myself
TTITLE10=Dr. Fry's Texas Medicine Band - Hey Mister Heavy
TTITLE11=Suzie Merwine - When Love Blows Hot To Cold
TTITLE12=Phillip Clarkson - South Bound Train
TTITLE13=Captain ''T'' (John Hunnicut) - Sweet Warm Winds Of Arkansas
TTITLE14=Mitch Snow - Once In A Lifetime
TTITLE15=Mark Kaylor and Juli MAners - You Know How To Turn Me On
TTITLE16=Bruce Greaves - Golden Ring
TTITLE17=John H. Turner jr. - Lonely Again
TTITLE18=Phik Coley - Now You Tell Me
TTITLE19=Stan Lahon - That Old Windmill
TTITLE20=Jeff B. Stone - Luckenbach Texas (Back To The Basics Of Love)
EXTD=
EXTT0=
EXTT1=
EXTT2=
EXTT3=
EXTT4=
EXTT5=
EXTT6=
EXTT7=
EXTT8=
EXTT9=
EXTT10=
EXTT11=
EXTT12=
EXTT13=
EXTT14=
EXTT15=
EXTT16=
EXTT17=
EXTT18=
EXTT19=
EXTT20=
PLAYORDER=
